<?xml version="1.0" encoding="UTF-8" standalone="no"?>
<!DOCTYPE svg PUBLIC "-//W3C//DTD SVG 1.1//EN"
 "http://www.w3.org/Graphics/SVG/1.1/DTD/svg11.dtd">
<!-- Generated by graphviz version 13.1.0 (0)
 -->
<!-- Title: tcp_sequence Pages: 1 -->
<svg width="256pt" height="2816pt"
 viewBox="0.00 0.00 256.00 2816.00" xmlns="http://www.w3.org/2000/svg" xmlns:xlink="http://www.w3.org/1999/xlink">
<g id="graph0" class="graph" transform="scale(1 1) rotate(0) translate(4 2812.36)">
<title>tcp_sequence</title>
<polygon fill="white" stroke="none" points="-4,4 -4,-2812.36 252.25,-2812.36 252.25,4 -4,4"/>
<!-- Client -->
<g id="node1" class="node">
<title>Client</title>
<text xml:space="preserve" text-anchor="middle" x="221.25" y="-2785.31" font-family="Times,serif" font-size="14.00">Client</text>
</g>
<!-- c1 -->
<g id="node3" class="node">
<title>c1</title>
<ellipse fill="black" stroke="black" cx="221.25" cy="-2484.36" rx="0.36" ry="0.36"/>
</g>
<!-- Client&#45;&gt;c1 -->
<g id="edge8" class="edge">
<title>Client&#45;&gt;c1</title>
<path fill="none" stroke="gray" stroke-width="2" d="M221.25,-2772.47C221.25,-2676.63 221.25,-2580.79 221.25,-2484.96"/>
</g>
<!-- Server -->
<g id="node2" class="node">
<title>Server</title>
<text xml:space="preserve" text-anchor="middle" x="221.25" y="-2317.31" font-family="Times,serif" font-size="14.00">Server</text>
</g>
<!-- s1 -->
<g id="node8" class="node">
<title>s1</title>
<ellipse fill="black" stroke="black" cx="221.25" cy="-2016.36" rx="0.36" ry="0.36"/>
</g>
<!-- Server&#45;&gt;s1 -->
<g id="edge13" class="edge">
<title>Server&#45;&gt;s1</title>
<path fill="none" stroke="gray" stroke-width="2" d="M221.25,-2304.47C221.25,-2208.63 221.25,-2112.79 221.25,-2016.96"/>
</g>
<!-- c2 -->
<g id="node4" class="node">
<title>c2</title>
<ellipse fill="black" stroke="black" cx="221.25" cy="-1728.36" rx="0.36" ry="0.36"/>
</g>
<!-- c1&#45;&gt;c2 -->
<!-- c1&#45;&gt;c2 -->
<g id="edge9" class="edge">
<title>c1&#45;&gt;c2</title>
<path fill="none" stroke="gray" stroke-width="2" d="M220.94,-2483.78C216.75,-2475.99 171.81,-2391.15 158.25,-2316.36 112.45,-2063.81 216.18,-1743.76 221.07,-1728.9"/>
</g>
<!-- c1&#45;&gt;s1 -->
<g id="edge17" class="edge">
<title>c1&#45;&gt;s1</title>
<path fill="none" stroke="black" d="M220.54,-2484.01C206.07,-2476.8 -24.74,-2359.49 25.19,-2230.86 64.66,-2129.17 177.31,-2046.25 211.37,-2022.92"/>
<polygon fill="black" stroke="black" points="212.94,-2026.09 219.32,-2017.63 209.06,-2020.26 212.94,-2026.09"/>
<text xml:space="preserve" text-anchor="middle" x="70.12" y="-2262.26" font-family="Times,serif" font-size="8.00">SYN</text>
<text xml:space="preserve" text-anchor="middle" x="70.12" y="-2252.51" font-family="Times,serif" font-size="8.00">Seq=0 Win=65495</text>
<text xml:space="preserve" text-anchor="middle" x="70.12" y="-2242.76" font-family="Times,serif" font-size="8.00">Len=0 MSS=65495</text>
<text xml:space="preserve" text-anchor="middle" x="70.12" y="-2233.01" font-family="Times,serif" font-size="8.00">SACK_PERM TSval=3192259273 WS=128</text>
</g>
<!-- c3 -->
<g id="node5" class="node">
<title>c3</title>
<ellipse fill="black" stroke="black" cx="221.25" cy="-1440.36" rx="0.36" ry="0.36"/>
</g>
<!-- c2&#45;&gt;c3 -->
<!-- c2&#45;&gt;c3 -->
<g id="edge10" class="edge">
<title>c2&#45;&gt;c3</title>
<path fill="none" stroke="gray" stroke-width="2" d="M221.25,-1727.52C220.89,-1632.08 220.89,-1536.64 221.25,-1441.2"/>
</g>
<!-- s2 -->
<g id="node9" class="node">
<title>s2</title>
<ellipse fill="black" stroke="black" cx="221.25" cy="-1152.36" rx="0.36" ry="0.36"/>
</g>
<!-- c2&#45;&gt;s2 -->
<g id="edge19" class="edge">
<title>c2&#45;&gt;s2</title>
<path fill="none" stroke="black" d="M220.74,-1727.73C212.5,-1717.47 106.38,-1583.58 73.94,-1454.98 42.23,-1329.29 176.1,-1194.19 212.39,-1160.37"/>
<polygon fill="black" stroke="black" points="214.54,-1163.14 219.6,-1153.83 209.84,-1157.96 214.54,-1163.14"/>
<text xml:space="preserve" text-anchor="middle" x="70.12" y="-1447.38" font-family="Times,serif" font-size="8.00">ACK</text>
<text xml:space="preserve" text-anchor="middle" x="70.12" y="-1437.63" font-family="Times,serif" font-size="8.00">Seq=1 Ack=1</text>
<text xml:space="preserve" text-anchor="middle" x="70.12" y="-1427.88" font-family="Times,serif" font-size="8.00">Win=65536</text>
</g>
<!-- c4 -->
<g id="node6" class="node">
<title>c4</title>
<ellipse fill="black" stroke="black" cx="221.25" cy="-576.36" rx="0.36" ry="0.36"/>
</g>
<!-- c3&#45;&gt;c4 -->
<!-- c3&#45;&gt;c4 -->
<g id="edge11" class="edge">
<title>c3&#45;&gt;c4</title>
<path fill="none" stroke="gray" stroke-width="2" d="M221.03,-1439.59C217.48,-1427.03 171.77,-1263.63 158.25,-1128.36 147.64,-1022.22 147.64,-994.5 158.25,-888.36 171.77,-753.09 217.48,-589.69 221.03,-577.13"/>
</g>
<!-- c3&#45;&gt;s2 -->
<g id="edge20" class="edge">
<title>c3&#45;&gt;s2</title>
<path fill="none" stroke="black" d="M221.25,-1439.58C221.25,-1425.3 221.25,-1217.82 221.25,-1164.68"/>
<polygon fill="black" stroke="black" points="224.75,-1164.7 221.25,-1154.7 217.75,-1164.7 224.75,-1164.7"/>
<text xml:space="preserve" text-anchor="middle" x="203.62" y="-1303.38" font-family="Times,serif" font-size="8.00">PSH, ACK</text>
<text xml:space="preserve" text-anchor="middle" x="203.62" y="-1293.63" font-family="Times,serif" font-size="8.00">Seq=1 Ack=1</text>
<text xml:space="preserve" text-anchor="middle" x="203.62" y="-1283.88" font-family="Times,serif" font-size="8.00">Len=14 (Data payload)</text>
</g>
<!-- c5 -->
<g id="node7" class="node">
<title>c5</title>
<ellipse fill="black" stroke="black" cx="221.25" cy="-288.36" rx="0.36" ry="0.36"/>
</g>
<!-- c4&#45;&gt;c5 -->
<!-- c4&#45;&gt;c5 -->
<g id="edge12" class="edge">
<title>c4&#45;&gt;c5</title>
<path fill="none" stroke="gray" stroke-width="2" d="M221.25,-575.52C220.89,-480.08 220.89,-384.64 221.25,-289.2"/>
</g>
<!-- s4 -->
<g id="node11" class="node">
<title>s4</title>
<ellipse fill="black" stroke="black" cx="221.25" cy="-0.36" rx="0.36" ry="0.36"/>
</g>
<!-- c4&#45;&gt;s4 -->
<g id="edge23" class="edge">
<title>c4&#45;&gt;s4</title>
<path fill="none" stroke="black" d="M220.72,-575.9C209.83,-566.54 36.15,-414.5 72.06,-273.74 101.06,-160.05 188.09,-42.67 213.94,-9.55"/>
<polygon fill="black" stroke="black" points="216.49,-11.95 219.98,-1.95 211.01,-7.6 216.49,-11.95"/>
<text xml:space="preserve" text-anchor="middle" x="70.12" y="-295.38" font-family="Times,serif" font-size="8.00">ACK</text>
<text xml:space="preserve" text-anchor="middle" x="70.12" y="-285.63" font-family="Times,serif" font-size="8.00">Seq=15 Ack=2</text>
<text xml:space="preserve" text-anchor="middle" x="70.12" y="-275.88" font-family="Times,serif" font-size="8.00">Win=65536</text>
</g>
<!-- c5&#45;&gt;s4 -->
<g id="edge24" class="edge">
<title>c5&#45;&gt;s4</title>
<path fill="none" stroke="black" d="M221.25,-287.58C221.25,-273.3 221.25,-65.82 221.25,-12.68"/>
<polygon fill="black" stroke="black" points="224.75,-12.7 221.25,-2.7 217.75,-12.7 224.75,-12.7"/>
<text xml:space="preserve" text-anchor="middle" x="203.62" y="-151.39" font-family="Times,serif" font-size="8.00">FIN, ACK</text>
<text xml:space="preserve" text-anchor="middle" x="203.62" y="-141.64" font-family="Times,serif" font-size="8.00">Seq=15 Ack=2</text>
<text xml:space="preserve" text-anchor="middle" x="203.62" y="-131.89" font-family="Times,serif" font-size="8.00">Win=65536</text>
</g>
<!-- s1&#45;&gt;c2 -->
<g id="edge18" class="edge">
<title>s1&#45;&gt;c2</title>
<path fill="none" stroke="black" d="M221.25,-2015.58C221.25,-2001.3 221.25,-1793.82 221.25,-1740.68"/>
<polygon fill="black" stroke="black" points="224.75,-1740.7 221.25,-1730.7 217.75,-1740.7 224.75,-1740.7"/>
<text xml:space="preserve" text-anchor="middle" x="198.75" y="-1884.26" font-family="Times,serif" font-size="8.00">SYN, ACK</text>
<text xml:space="preserve" text-anchor="middle" x="198.75" y="-1874.51" font-family="Times,serif" font-size="8.00">Seq=0 Ack=1</text>
<text xml:space="preserve" text-anchor="middle" x="198.75" y="-1864.76" font-family="Times,serif" font-size="8.00">Win=65483 MSS=65495</text>
<text xml:space="preserve" text-anchor="middle" x="198.75" y="-1855.01" font-family="Times,serif" font-size="8.00">SACK_PERM TSval=3192259273 WS=128</text>
</g>
<!-- s1&#45;&gt;s2 -->
<!-- s1&#45;&gt;s2 -->
<g id="edge14" class="edge">
<title>s1&#45;&gt;s2</title>
<path fill="none" stroke="gray" stroke-width="2" d="M221.03,-2015.59C217.48,-2003.03 171.77,-1839.63 158.25,-1704.36 147.64,-1598.22 147.64,-1570.5 158.25,-1464.36 171.77,-1329.09 217.48,-1165.69 221.03,-1153.13"/>
</g>
<!-- s2&#45;&gt;c4 -->
<g id="edge21" class="edge">
<title>s2&#45;&gt;c4</title>
<path fill="none" stroke="black" d="M220.72,-1151.9C209.83,-1142.54 36.15,-990.5 72.06,-849.74 101.06,-736.05 188.09,-618.67 213.94,-585.55"/>
<polygon fill="black" stroke="black" points="216.49,-587.95 219.98,-577.95 211.01,-583.6 216.49,-587.95"/>
<text xml:space="preserve" text-anchor="middle" x="70.12" y="-871.38" font-family="Times,serif" font-size="8.00">ACK</text>
<text xml:space="preserve" text-anchor="middle" x="70.12" y="-861.63" font-family="Times,serif" font-size="8.00">Seq=1 Ack=15</text>
<text xml:space="preserve" text-anchor="middle" x="70.12" y="-851.88" font-family="Times,serif" font-size="8.00">Win=65536</text>
</g>
<!-- s3 -->
<g id="node10" class="node">
<title>s3</title>
<ellipse fill="black" stroke="black" cx="221.25" cy="-864.36" rx="0.36" ry="0.36"/>
</g>
<!-- s2&#45;&gt;s3 -->
<!-- s2&#45;&gt;s3 -->
<g id="edge15" class="edge">
<title>s2&#45;&gt;s3</title>
<path fill="none" stroke="gray" stroke-width="2" d="M221.25,-1151.52C220.89,-1056.08 220.89,-960.64 221.25,-865.2"/>
</g>
<!-- s3&#45;&gt;c4 -->
<g id="edge22" class="edge">
<title>s3&#45;&gt;c4</title>
<path fill="none" stroke="black" d="M221.25,-863.58C221.25,-849.3 221.25,-641.82 221.25,-588.68"/>
<polygon fill="black" stroke="black" points="224.75,-588.7 221.25,-578.7 217.75,-588.7 224.75,-588.7"/>
<text xml:space="preserve" text-anchor="middle" x="203.62" y="-727.38" font-family="Times,serif" font-size="8.00">FIN, ACK</text>
<text xml:space="preserve" text-anchor="middle" x="203.62" y="-717.63" font-family="Times,serif" font-size="8.00">Seq=1 Ack=15</text>
<text xml:space="preserve" text-anchor="middle" x="203.62" y="-707.88" font-family="Times,serif" font-size="8.00">Win=65536</text>
</g>
<!-- s3&#45;&gt;s4 -->
<!-- s3&#45;&gt;s4 -->
<g id="edge16" class="edge">
<title>s3&#45;&gt;s4</title>
<path fill="none" stroke="gray" stroke-width="2" d="M221.03,-863.59C217.48,-851.03 171.77,-687.63 158.25,-552.36 147.64,-446.22 147.64,-418.5 158.25,-312.36 171.77,-177.09 217.48,-13.69 221.03,-1.13"/>
</g>
</g>
</svg>
